<svg xmlns="http://www.w3.org/2000/svg" viewBox="0 0 200 200" width="200" height="200" fill="none">
  <defs>
    <linearGradient id="armGrad" x1="0" y1="0" x2="0" y2="1">
      <stop offset="0%" stop-color="#E4EAEC"/>
      <stop offset="55%" stop-color="#A9B3BC"/>
      <stop offset="100%" stop-color="#5E6A74"/>
    </linearGradient>
    <linearGradient id="teal" x1="0" y1="0" x2="1" y2="1">
      <stop offset="0%" stop-color="#00D3CD"/>
      <stop offset="100%" stop-color="#014C60"/>
    </linearGradient>
  </defs>
  <g stroke="url(#teal)" stroke-width="1.4" fill="none" opacity="0.9">
    <circle cx="100" cy="100" r="86"/>
    <circle cx="100" cy="100" r="70" stroke="#00D3CD" stroke-dasharray="140 20" opacity="0.55"/>
  </g>
  <g fill="#014C60">
    <circle cx="100" cy="14" r="4"/>
    <circle cx="186" cy="100" r="4"/>
    <circle cx="100" cy="186" r="4"/>
    <circle cx="14" cy="100" r="4"/>
    <circle cx="159" cy="41" r="3" fill="#00D3CD"/>
    <circle cx="41" cy="159" r="3" fill="#00D3CD"/>
  </g>
  <g transform="translate(100 55)" stroke="#014C60" stroke-width="1.2">
    <rect x="-5" y="-30" width="10" height="10" rx="1.5" fill="#014C60"/>
    <rect x="-11" y="-20" width="22" height="9" rx="1.5" fill="url(#teal)"/>
    <path d="M -9 -10 L -14 6 L -8 8 L -4 -8 Z" fill="url(#armGrad)"/>
    <path d="M 9 -10 L 14 6 L 8 8 L 4 -8 Z" fill="url(#armGrad)"/>
  </g>
  <g transform="translate(100 95)" fill="#014C60">
    <path d="M 0 -22 L 5 -22 L 5 -18 L 10 -17 L 14 -21 L 18 -17 L 14 -13 L 17 -8 L 22 -8 L 22 -3 L 22 3 L 17 3 L 14 8 L 18 12 L 14 16 L 10 12 L 5 15 L 5 19 L 0 19 L -5 19 L -5 15 L -10 12 L -14 16 L -18 12 L -14 8 L -17 3 L -22 3 L -22 -3 L -22 -8 L -17 -8 L -14 -13 L -18 -17 L -14 -21 L -10 -17 L -5 -18 L -5 -22 Z"/>
    <circle cx="0" cy="0" r="7" fill="#ECF2E4"/>
    <circle cx="0" cy="0" r="3" fill="#014C60"/>
  </g>
  <g transform="translate(100 150)">
    <path d="M -32 10 Q -30 -8 -14 -6 Q 0 -4 4 -12 Q 8 -22 18 -20 Q 26 -18 28 -6 Q 30 14 20 22 Q 6 28 -10 26 Q -26 24 -32 14 Z" fill="url(#armGrad)" stroke="#014C60" stroke-width="1"/>
    <path d="M -5 -12 Q -3 -24 5 -24 Q 11 -23 12 -14 L 9 -6" fill="url(#armGrad)" stroke="#014C60" stroke-width="1"/>
    <path d="M 7 -14 Q 9 -26 17 -25 Q 23 -23 23 -14 L 20 -8" fill="url(#armGrad)" stroke="#014C60" stroke-width="1"/>
    <path d="M 19 -10 Q 22 -18 28 -17 L 27 -6" fill="url(#armGrad)" stroke="#014C60" stroke-width="1"/>
    <path d="M -20 10 L 22 10 M -24 2 L 26 2" stroke="#014C60" stroke-width="0.7" opacity="0.6" fill="none"/>
  </g>
</svg>
