<svg xmlns="http://www.w3.org/2000/svg" width="280" height="48" viewBox="0 0 280 48" fill="none">
  <defs>
    <linearGradient id="armGrad3" x1="0" y1="0" x2="0" y2="1">
      <stop offset="0%" stop-color="#E4EAEC"/>
      <stop offset="55%" stop-color="#A9B3BC"/>
      <stop offset="100%" stop-color="#5E6A74"/>
    </linearGradient>
    <linearGradient id="teal3" x1="0" y1="0" x2="1" y2="1">
      <stop offset="0%" stop-color="#00D3CD"/>
      <stop offset="100%" stop-color="#014C60"/>
    </linearGradient>
  </defs>
  <g transform="translate(2 4) scale(0.2)">
    <g stroke="url(#teal3)" stroke-width="6" fill="none" opacity="0.95">
      <circle cx="100" cy="100" r="86"/>
      <circle cx="100" cy="100" r="70" stroke="#014C60" stroke-dasharray="140 20" opacity="0.7"/>
    </g>
    <g fill="#014C60">
      <circle cx="100" cy="14" r="7"/>
      <circle cx="186" cy="100" r="7"/>
      <circle cx="100" cy="186" r="7"/>
      <circle cx="14" cy="100" r="7"/>
      <circle cx="159" cy="41" r="5" fill="#00D3CD"/>
      <circle cx="41" cy="159" r="5" fill="#00D3CD"/>
    </g>
    <g transform="translate(100 55)" stroke="#014C60" stroke-width="4">
      <rect x="-6" y="-32" width="12" height="12" rx="1.5" fill="#014C60"/>
      <rect x="-12" y="-20" width="24" height="10" rx="1.5" fill="url(#teal3)"/>
      <path d="M -10 -10 L -15 8 L -8 10 L -4 -8 Z" fill="url(#armGrad3)"/>
      <path d="M 10 -10 L 15 8 L 8 10 L 4 -8 Z" fill="url(#armGrad3)"/>
    </g>
    <g transform="translate(100 95)" fill="url(#teal3)">
      <path d="M 0 -22 L 5 -22 L 5 -18 L 10 -17 L 14 -21 L 18 -17 L 14 -13 L 17 -8 L 22 -8 L 22 -3 L 22 3 L 17 3 L 14 8 L 18 12 L 14 16 L 10 12 L 5 15 L 5 19 L 0 19 L -5 19 L -5 15 L -10 12 L -14 16 L -18 12 L -14 8 L -17 3 L -22 3 L -22 -3 L -22 -8 L -17 -8 L -14 -13 L -18 -17 L -14 -21 L -10 -17 L -5 -18 L -5 -22 Z"/>
      <circle cx="0" cy="0" r="7" fill="#ECF2E4"/>
      <circle cx="0" cy="0" r="3" fill="#014C60"/>
    </g>
    <g transform="translate(100 150)">
      <path d="M -32 10 Q -30 -8 -14 -6 Q 0 -4 4 -12 Q 8 -22 18 -20 Q 26 -18 28 -6 Q 30 14 20 22 Q 6 28 -10 26 Q -26 24 -32 14 Z" fill="url(#armGrad3)" stroke="#014C60" stroke-width="2"/>
      <path d="M -5 -12 Q -3 -24 5 -24 Q 11 -23 12 -14 L 9 -6" fill="url(#armGrad3)" stroke="#014C60" stroke-width="2"/>
      <path d="M 7 -14 Q 9 -26 17 -25 Q 23 -23 23 -14 L 20 -8" fill="url(#armGrad3)" stroke="#014C60" stroke-width="2"/>
      <path d="M 19 -10 Q 22 -18 28 -17 L 27 -6" fill="url(#armGrad3)" stroke="#014C60" stroke-width="2"/>
    </g>
  </g>
  <text x="54" y="30" font-family="Marseilazi, 'Kern-StandardRegular', sans-serif" font-weight="400" font-size="22" letter-spacing="1.5" fill="#00D3CD">AI</text>
  <text x="88" y="30" font-family="Marseilazi, 'Kern-StandardRegular', sans-serif" font-weight="400" font-size="22" letter-spacing="1.5" fill="#014C60">ROBOTICS</text>
</svg>
