<svg width="18" height="18" viewBox="0 0 18 18" fill="none" xmlns="http://www.w3.org/2000/svg">
<path d="M9.77132 1.50098C10.6154 1.50237 11.0431 1.50683 11.4127 1.51784L11.5583 1.5226C11.7264 1.52858 11.8923 1.53608 12.0923 1.54545C12.8904 1.58232 13.4348 1.70858 13.913 1.8942C14.4073 2.08482 14.8248 2.34233 15.2417 2.7592C15.6579 3.17607 15.9155 3.59483 16.1067 4.08795C16.2917 4.56545 16.418 5.11045 16.4555 5.90858C16.4644 6.10857 16.4716 6.27447 16.4775 6.44266L16.4822 6.58822C16.4932 6.95778 16.4982 7.38557 16.4998 8.22962L16.5004 8.78889C16.5005 8.85722 16.5005 8.92772 16.5005 9.00047L16.5004 9.21204L16.4999 9.77132C16.4985 10.6154 16.4941 11.0431 16.4831 11.4127L16.4783 11.5583C16.4723 11.7264 16.4648 11.8923 16.4555 12.0923C16.4186 12.8904 16.2917 13.4348 16.1067 13.913C15.9161 14.4073 15.6579 14.8248 15.2417 15.2417C14.8248 15.6579 14.4054 15.9155 13.913 16.1067C13.4348 16.2917 12.8904 16.418 12.0923 16.4555C11.8923 16.4644 11.7264 16.4716 11.5583 16.4775L11.4127 16.4822C11.0431 16.4932 10.6154 16.4982 9.77132 16.4998L9.21204 16.5004C9.14372 16.5005 9.07322 16.5005 9.00047 16.5005L8.78889 16.5004L8.22962 16.4999C7.38557 16.4985 6.95778 16.4941 6.58822 16.4831L6.44266 16.4783C6.27447 16.4723 6.10857 16.4648 5.90858 16.4555C5.11045 16.4186 4.5667 16.2917 4.08795 16.1067C3.5942 15.9161 3.17607 15.6579 2.7592 15.2417C2.34233 14.8248 2.08545 14.4054 1.8942 13.913C1.70858 13.4348 1.58295 12.8904 1.54545 12.0923C1.53654 11.8923 1.52927 11.7264 1.52339 11.5583L1.51867 11.4127C1.5077 11.0431 1.50269 10.6154 1.50107 9.77132L1.50098 8.22962C1.50237 7.38557 1.50683 6.95778 1.51784 6.58822L1.5226 6.44266C1.52858 6.27447 1.53608 6.10857 1.54545 5.90858C1.58232 5.10983 1.70858 4.56608 1.8942 4.08795C2.08482 3.5942 2.34233 3.17607 2.7592 2.7592C3.17607 2.34233 3.59483 2.08545 4.08795 1.8942C4.56608 1.70858 5.10983 1.58295 5.90858 1.54545C6.10857 1.53654 6.27447 1.52927 6.44266 1.52339L6.58822 1.51867C6.95778 1.5077 7.38557 1.50269 8.22962 1.50107L9.77132 1.50098ZM9.00047 5.25045C6.92828 5.25045 5.25045 6.9301 5.25045 9.00047C5.25045 11.0726 6.9301 12.7505 9.00047 12.7505C11.0726 12.7505 12.7505 11.0708 12.7505 9.00047C12.7505 6.92828 11.0708 5.25045 9.00047 5.25045ZM9.00047 6.75045C10.2431 6.75045 11.2505 7.75742 11.2505 9.00047C11.2505 10.2431 10.2434 11.2505 9.00047 11.2505C7.75779 11.2505 6.75045 10.2434 6.75045 9.00047C6.75045 7.75779 7.75742 6.75045 9.00047 6.75045ZM12.938 4.12545C12.421 4.12545 12.0005 4.54538 12.0005 5.06231C12.0005 5.57924 12.4204 5.99982 12.938 5.99982C13.4549 5.99982 13.8755 5.5799 13.8755 5.06231C13.8755 4.54538 13.4542 4.1248 12.938 4.12545Z" fill="black"/>
</svg>
