<svg width="18" height="18" viewBox="0 0 18 18" fill="none" xmlns="http://www.w3.org/2000/svg">
<path d="M5.20512 3.7497C5.20484 4.36044 4.83432 4.91002 4.26826 5.1393C3.70221 5.36859 3.05366 5.23179 2.62843 4.79342C2.2032 4.35504 2.08622 3.70262 2.33263 3.14381C2.57905 2.585 3.13966 2.23138 3.75012 2.2497C4.56092 2.27404 5.20548 2.93853 5.20512 3.7497ZM5.25012 6.3597H2.25012V15.7497H5.25012V6.3597ZM9.99013 6.3597H7.00512V15.7497H9.96013V10.8222C9.96013 8.07718 13.5376 7.82218 13.5376 10.8222V15.7497H16.5001V9.80218C16.5001 5.1747 11.2051 5.3472 9.96013 7.61968L9.99013 6.3597Z" fill="black"/>
</svg>
