<svg width="18" height="18" viewBox="0 0 18 18" fill="none" xmlns="http://www.w3.org/2000/svg">
<path d="M8.16602 0.666016C12.306 0.666016 15.666 4.02602 15.666 8.16602C15.666 12.306 12.306 15.666 8.16602 15.666C4.02602 15.666 0.666016 12.306 0.666016 8.16602C0.666016 4.02602 4.02602 0.666016 8.16602 0.666016ZM8.16602 13.9993C11.3889 13.9993 13.9993 11.3889 13.9993 8.16602C13.9993 4.9431 11.3889 2.33268 8.16602 2.33268C4.9431 2.33268 2.33268 4.9431 2.33268 8.16602C2.33268 11.3889 4.9431 13.9993 8.16602 13.9993ZM15.2371 14.0586L17.5941 16.4156L16.4156 17.5941L14.0586 15.2371L15.2371 14.0586Z" fill="black"/>
</svg>
