<?xml version="1.0" encoding="UTF-8"?>
<svg xmlns="http://www.w3.org/2000/svg" width="35" height="48" viewBox="0 0 35 48" fill="none">
  <path d="M13.5482 0H17.6073V4.05914H13.5482V0Z" fill="#1F1F1F"></path>
  <path d="M17.5594 3.91661H21.6185V7.97575H17.5594V3.91661Z" fill="#1F1F1F"></path>
  <path d="M17.5594 0.00804138H21.6185V4.06718H17.5594V0.00804138Z" fill="#1F1F1F"></path>
  <path d="M26.9296 0H30.9887V4.05914H26.9296V0Z" fill="#1F1F1F"></path>
  <path d="M30.9409 3.91661H35V7.97575H30.9409V3.91661Z" fill="#1F1F1F"></path>
  <path d="M30.9408 0.00804138H34.9999V4.06718H30.9408V0.00804138Z" fill="#1F1F1F"></path>
  <path d="M0.160374 0H4.21947V4.05914H0.160374V0Z" fill="#1F1F1F"></path>
  <path d="M4.17178 3.91661H8.23088V7.97575H4.17178V3.91661Z" fill="#1F1F1F"></path>
  <path d="M4.17175 0.00804138H8.23084V4.06718H4.17175V0.00804138Z" fill="#1F1F1F"></path>
  <path d="M0.159771 13.1913H4.21887V17.2505H0.159771V13.1913Z" fill="#1F1F1F"></path>
  <path d="M4.17085 17.108H8.22995V21.1671H4.17085V17.108Z" fill="#1F1F1F"></path>
  <path d="M4.17099 13.1991H8.23009V17.2583H4.17099V13.1991Z" fill="#1F1F1F"></path>
  <path d="M0 26.3745H4.0591V30.4336H0V26.3745Z" fill="#1F1F1F"></path>
  <path d="M4.01108 30.2832H8.07018V34.3424H4.01108V30.2832Z" fill="#1F1F1F"></path>
  <path d="M4.01133 26.3825H8.07043V30.4416H4.01133V26.3825Z" fill="#1F1F1F"></path>
  <path d="M13.5613 13.1913H17.6204V17.2505H13.5613V13.1913Z" fill="#1F1F1F"></path>
  <path d="M17.5725 17.108H21.6316V21.1671H17.5725V17.108Z" fill="#1F1F1F"></path>
  <path d="M17.5725 13.1991H21.6316V17.2583H17.5725V13.1991Z" fill="#1F1F1F"></path>
  <path d="M13.401 26.3745H17.4601V30.4336H13.401V26.3745Z" fill="#1F1F1F"></path>
  <path d="M17.4123 30.2832H21.4714V34.3424H17.4123V30.2832Z" fill="#1F1F1F"></path>
  <path d="M17.4122 26.3825H21.4713V30.4416H17.4122V26.3825Z" fill="#1F1F1F"></path>
  <path d="M0.380112 39.4582H4.43921V43.5174H0.380112V39.4582Z" fill="#1F1F1F"></path>
  <path d="M4.39119 43.3668H8.45029V47.4259H4.39119V43.3668Z" fill="#1F1F1F"></path>
  <path d="M4.39119 39.4663H8.45028V43.5254H4.39119V39.4663Z" fill="#1F1F1F"></path>
  <path d="M13.3845 39.359H17.4436V43.4181H13.3845V39.359Z" fill="#1F1F1F"></path>
  <path d="M17.3957 43.2755H21.4548V47.3347H17.3957V43.2755Z" fill="#1F1F1F"></path>
  <path d="M17.3957 39.367H21.4548V43.4261H17.3957V39.367Z" fill="#1F1F1F"></path>
  <path d="M26.8017 39.359H30.8608V43.4181H26.8017V39.359Z" fill="#1F1F1F"></path>
  <path d="M30.8129 43.2755H34.872V47.3347H30.8129V43.2755Z" fill="#1F1F1F"></path>
  <path d="M30.8129 39.367H34.872V43.4261H30.8129V39.367Z" fill="#1F1F1F"></path>
</svg>
