<?xml version="1.0" encoding="UTF-8"?>
<svg xmlns="http://www.w3.org/2000/svg" width="35" height="48" viewBox="0 0 35 48" fill="none">
  <path d="M13.5482 0H17.6073V4.05914H13.5482V0Z" fill="#1F1F1F"></path>
  <path d="M17.5595 3.91406H21.6186V7.9732H17.5595V3.91406Z" fill="#1F1F1F"></path>
  <path d="M17.5594 0.00804234H21.6185V4.06718H17.5594V0.00804234Z" fill="#1F1F1F"></path>
  <path d="M26.9296 0H30.9887V4.05914H26.9296V0Z" fill="#1F1F1F"></path>
  <path d="M30.9409 3.91406H35V7.9732H30.9409V3.91406Z" fill="#1F1F1F"></path>
  <path d="M30.9408 0.00804234H34.9999V4.06718H30.9408V0.00804234Z" fill="#1F1F1F"></path>
  <path d="M13.5482 13.1875H17.6073V17.2466H13.5482V13.1875Z" fill="#1F1F1F"></path>
  <path d="M17.5594 17.1016H21.6185V21.1607H17.5594V17.1016Z" fill="#1F1F1F"></path>
  <path d="M17.5594 13.1955H21.6185V17.2547H17.5594V13.1955Z" fill="#1F1F1F"></path>
  <path d="M0.160374 0H4.21947V4.05914H0.160374V0Z" fill="#1F1F1F"></path>
  <path d="M4.17185 3.91406H8.23095V7.9732H4.17185V3.91406Z" fill="#1F1F1F"></path>
  <path d="M4.17175 0.00804234H8.23084V4.06718H4.17175V0.00804234Z" fill="#1F1F1F"></path>
  <path d="M0.159668 13.1875H4.21876V17.2466H0.159668V13.1875Z" fill="#1F1F1F"></path>
  <path d="M4.17065 17.1016H8.22975V21.1607H4.17065V17.1016Z" fill="#1F1F1F"></path>
  <path d="M4.171 13.1955H8.23009V17.2547H4.171V13.1955Z" fill="#1F1F1F"></path>
  <path d="M0 26.375H4.0591V30.4341H0V26.375Z" fill="#1F1F1F"></path>
  <path d="M4.01099 30.2812H8.07008V34.3404H4.01099V30.2812Z" fill="#1F1F1F"></path>
  <path d="M4.01133 26.383H8.07043V30.4422H4.01133V26.383Z" fill="#1F1F1F"></path>
  <path d="M0.380127 39.4609H4.43922V43.5201H0.380127V39.4609Z" fill="#1F1F1F"></path>
  <path d="M4.39111 43.3672H8.45021V47.4263H4.39111V43.3672Z" fill="#1F1F1F"></path>
  <path d="M4.39135 39.4688H8.45045V43.5279H4.39135V39.4688Z" fill="#1F1F1F"></path>
  <path d="M13.4012 39.4609H17.4603V43.5201H13.4012V39.4609Z" fill="#1F1F1F"></path>
  <path d="M17.4125 43.3672H21.4716V47.4263H17.4125V43.3672Z" fill="#1F1F1F"></path>
  <path d="M17.4125 39.4688H21.4716V43.5279H17.4125V39.4688Z" fill="#1F1F1F"></path>
  <path d="M26.8018 39.4609H30.8609V43.5201H26.8018V39.4609Z" fill="#1F1F1F"></path>
  <path d="M30.813 43.3672H34.8721V47.4263H30.813V43.3672Z" fill="#1F1F1F"></path>
  <path d="M30.813 39.4688H34.8721V43.5279H30.813V39.4688Z" fill="#1F1F1F"></path>
  <path d="M13.3845 26.5469H17.4436V30.606H13.3845V26.5469Z" fill="#1F1F1F"></path>
  <path d="M17.3958 30.4609H21.4548V34.5201H17.3958V30.4609Z" fill="#1F1F1F"></path>
  <path d="M17.3957 26.5547H21.4548V30.6138H17.3957V26.5547Z" fill="#1F1F1F"></path>
  <path d="M26.8018 19.8281H30.8609V23.8873H26.8018V19.8281Z" fill="#1F1F1F"></path>
  <path d="M30.813 23.7422H34.8721V27.8013H30.813V23.7422Z" fill="#1F1F1F"></path>
  <path d="M30.813 19.8359H34.8721V23.8951H30.813V19.8359Z" fill="#1F1F1F"></path>
</svg>
