<svg width="1434" height="282" viewBox="0 0 1434 282" fill="none" xmlns="http://www.w3.org/2000/svg">
<path d="M607.917 257.147C571.156 257.147 543.731 236.103 541.443 191.328H701.624V172.194C701.624 116.706 668.865 76.5273 607.157 76.5273C546.205 76.5273 507.352 116.706 507.352 181.761C507.352 246.817 542.398 286.995 607.917 286.995C670.77 286.995 696.671 248.347 702.384 218.115H666.577C661.051 240.694 644.865 257.147 607.917 257.147ZM607.157 106.375C643.346 106.375 665.822 125.893 667.345 162.627H542.403C548.119 125.126 574.398 106.375 607.162 106.375H607.157Z" fill="black" fill-opacity="0.1"/>
<path d="M131.919 127.808L97.2542 121.686C69.8253 116.903 45.448 106.572 45.448 77.4874C45.448 48.023 69.4434 32.5255 106.778 32.5255C144.112 32.5255 169.631 48.2149 171.537 84.1853H208.485C206.201 26.787 160.108 0 106.778 0C53.4479 0 8.88189 26.5952 8.88189 77.8712C8.88189 129.147 48.1175 147.518 84.6879 154.024L119.348 160.146C148.11 165.314 174.584 175.452 174.584 205.684C174.584 235.916 151.344 254.474 110.966 254.474C70.5893 254.474 40.1132 236.108 37.448 191.333H0.5C2.40123 257.536 54.2118 287 110.966 287C167.721 287 211.154 257.344 211.154 205.3C211.154 153.257 172.105 134.89 131.919 127.808Z" fill="black" fill-opacity="0.1"/>
<path d="M340.603 76.5322C302.513 76.5322 284.99 92.2216 273.942 114.417C273.912 114.478 273.877 114.539 273.851 114.6H268.234C268.234 114.539 268.23 114.478 268.23 114.417V5.73828L233.947 5.73828L233.947 281.261H268.23V177.937C268.23 130.106 291.084 107.143 329.178 107.143C363.461 107.143 382.508 126.278 382.508 162.632V281.261H416.791V156.893C416.791 105.234 388.22 76.5322 340.603 76.5322Z" fill="black" fill-opacity="0.1"/>
<path d="M482.379 82.2715H448.096V281.258H482.379V82.2715Z" fill="black" fill-opacity="0.1"/>
<path d="M482.348 5.73828L448.074 5.73828V40.1737H482.348V5.73828Z" fill="black" fill-opacity="0.1"/>
<path d="M951.952 116.327V116.34H946.261C946.127 116.101 945.992 115.843 945.853 115.56C932.9 89.9197 910.047 76.5283 877.287 76.5283C829.67 76.5283 782.057 110.968 782.057 181.762C782.057 252.556 829.67 286.996 877.287 286.996C910.047 286.996 932.9 273.605 945.853 247.964C946.04 247.589 946.218 247.254 946.391 246.953H951.939C951.939 247.031 951.947 247.114 951.947 247.197V281.257H986.23V5.73437L951.947 5.73437V116.327H951.952ZM885.292 256.385C845.296 256.385 816.726 229.598 816.726 181.762C816.726 133.927 845.296 107.144 885.292 107.144C925.287 107.144 953.857 133.931 953.857 181.762C953.857 229.593 925.287 256.385 885.292 256.385Z" fill="black" fill-opacity="0.1"/>
<path d="M1415.55 245.735C1415.55 241.244 1411.84 237.629 1405.43 237.629H1391.33V268.903H1398.31V258.477H1403.58C1406.71 258.477 1408.42 259.925 1408.42 262.676V268.899H1415.4V260.936C1415.4 257.456 1412.84 254.709 1409.28 254.709V252.246C1412.41 252.102 1415.55 249.93 1415.55 245.731L1415.55 245.735ZM1403.58 252.394H1398.31V243.559H1403.58C1406.72 243.559 1408.28 245.587 1408.28 247.902C1408.28 250.074 1406.72 252.394 1403.58 252.394Z" fill="black" fill-opacity="0.1"/>
<path d="M759.068 5.73828L724.785 5.73828V281.261H759.068V5.73828Z" fill="black" fill-opacity="0.1"/>
<path d="M1402.73 222.855C1385.49 222.855 1372.67 236.469 1372.67 253.406C1372.67 270.495 1385.49 283.956 1403.02 283.956C1420.96 283.956 1433.5 269.91 1433.5 253.262C1433.5 236.321 1420.82 222.855 1402.73 222.855ZM1403.02 277.009C1389.62 277.009 1380.08 266.732 1380.08 253.406C1380.08 239.796 1389.62 229.95 1402.73 229.95C1416.69 229.95 1426.09 239.509 1426.09 253.262C1426.09 267.015 1416.84 277.005 1403.02 277.005L1403.02 277.009Z" fill="black" fill-opacity="0.1"/>
<path d="M1355.48 5.73828L1321.11 5.73828V281.257H1355.48V5.73828Z" fill="black" fill-opacity="0.1"/>
<path d="M1158.37 5.73437L1064.03 261.164V281.257H1095.95L1117.14 221.592H1243.11L1264.68 281.257H1298.77V261.19L1203.02 5.73437L1158.38 5.73437H1158.37ZM1128.86 188.534L1178.06 49.1308H1181.08L1231.01 188.534H1128.86Z" fill="black" fill-opacity="0.1"/>
</svg>
