<?xml version="1.0" encoding="UTF-8"?>
<svg xmlns="http://www.w3.org/2000/svg" width="35" height="48" viewBox="0 0 35 48" fill="none">
  <path d="M13.5482 0H17.6073V4.05914H13.5482V0Z" fill="#1F1F1F"></path>
  <path d="M17.5595 3.91406H21.6186V7.9732H17.5595V3.91406Z" fill="#1F1F1F"></path>
  <path d="M17.5594 0.0078125H21.6185V4.06695H17.5594V0.0078125Z" fill="#1F1F1F"></path>
  <path d="M26.9296 0H30.9887V4.05914H26.9296V0Z" fill="#1F1F1F"></path>
  <path d="M30.9409 3.91406H35V7.9732H30.9409V3.91406Z" fill="#1F1F1F"></path>
  <path d="M30.9409 0.0078125H35V4.06695H30.9409V0.0078125Z" fill="#1F1F1F"></path>
  <path d="M13.5482 13.1875H17.6073V17.2466H13.5482V13.1875Z" fill="#1F1F1F"></path>
  <path d="M17.5594 17.1016H21.6185V21.1607H17.5594V17.1016Z" fill="#1F1F1F"></path>
  <path d="M17.5594 13.1953H21.6185V17.2545H17.5594V13.1953Z" fill="#1F1F1F"></path>
  <path d="M13.4012 26.8047H17.4603V30.8638H13.4012V26.8047Z" fill="#1F1F1F"></path>
  <path d="M17.4125 30.7188H21.4716V34.7779H17.4125V30.7188Z" fill="#1F1F1F"></path>
  <path d="M17.4125 26.8125H21.4716V30.8716H17.4125V26.8125Z" fill="#1F1F1F"></path>
  <path d="M26.8018 26.8047H30.8609V30.8638H26.8018V26.8047Z" fill="#1F1F1F"></path>
  <path d="M30.813 30.7188H34.8721V34.7779H30.813V30.7188Z" fill="#1F1F1F"></path>
  <path d="M30.813 26.8125H34.8721V30.8716H30.813V26.8125Z" fill="#1F1F1F"></path>
  <path d="M0.160374 0H4.21947V4.05914H0.160374V0Z" fill="#1F1F1F"></path>
  <path d="M4.17185 3.91406H8.23095V7.9732H4.17185V3.91406Z" fill="#1F1F1F"></path>
  <path d="M4.17182 0.0078125H8.23092V4.06695H4.17182V0.0078125Z" fill="#1F1F1F"></path>
  <path d="M0.159668 13.1875H4.21876V17.2466H0.159668V13.1875Z" fill="#1F1F1F"></path>
  <path d="M4.17065 17.1016H8.22975V21.1607H4.17065V17.1016Z" fill="#1F1F1F"></path>
  <path d="M4.17089 13.1953H8.22999V17.2545H4.17089V13.1953Z" fill="#1F1F1F"></path>
  <path d="M0 26.375H4.0591V30.4341H0V26.375Z" fill="#1F1F1F"></path>
  <path d="M4.01099 30.2812H8.07008V34.3404H4.01099V30.2812Z" fill="#1F1F1F"></path>
  <path d="M4.01133 26.383H8.07043V30.4422H4.01133V26.383Z" fill="#1F1F1F"></path>
  <path d="M0.380127 39.4609H4.43922V43.5201H0.380127V39.4609Z" fill="#1F1F1F"></path>
  <path d="M4.39111 43.3672H8.45021V47.4263H4.39111V43.3672Z" fill="#1F1F1F"></path>
  <path d="M4.39135 39.4688H8.45045V43.5279H4.39135V39.4688Z" fill="#1F1F1F"></path>
</svg>
